# xmcd CD database file
# Copyright (C) 1993-1998 Ti Kan
# 
# Track frame offsets:
#     150
#     12172
#     32267
#     47875
#     61795
#     72975
#     86087
#     106265
#     120547
#     136442
#     152667
#     167382
#     177930
#     195397
# 
# Disc length: 2712 seconds
# 
# Revision: 1
# Processed by: cddbd v1.4b41PL1 Copyright (c) Steve Scherf et al.
# Submitted via: DiscPlay 4.0.4
# 
DISCID=aa0a960e
DTITLE=Con Amore (Aalsmeers Mannenkoor) - Mooi Aalsmeer
DYEAR=1900
DGENRE=
TTITLE0=Als ik toch eens rijk was
TTITLE1=My way
TTITLE2=Roll, Jordan, roll
TTITLE3=Bridge over troubled water
TTITLE4=You'll never walk alone
TTITLE5=Ode an die freude
TTITLE6=Dear father
TTITLE7=It's me, O, Lord
TTITLE8=De doodgewoonste dingen
TTITLE9=Mooi Aalsmeer
TTITLE10=Climb ev'ry mountain
TTITLE11=Dunkelrote Rosen bring'ich sch ne Frau
TTITLE12=The elephantsong
TTITLE13=Oh when the saints
EXTD=
EXTT0=
EXTT1=
EXTT2=
EXTT3=
EXTT4=
EXTT5=
EXTT6=
EXTT7=
EXTT8=
EXTT9=
EXTT10=
EXTT11=
EXTT12=
EXTT13=
PLAYORDER=
